<svg xmlns="http://www.w3.org/2000/svg" viewBox="0 0 2500 2500" style="enable-background:new 0 0 2500 2500" xml:space="preserve"><path d="M2164 236.6h-960.5c0 239.5 194.1 433.6 433.6 433.6H1814V841c.2 239.3 194.1 433.2 433.3 433.3V319.9c0-46-37.3-83.3-83.3-83.3z" style="fill:#2684ff"/><linearGradient id="a" gradientUnits="userSpaceOnUse" x1="250.715" y1="2250.263" x2="250.365" y2="2249.901" gradientTransform="matrix(1168.1589 0 0 -1161.3224 -291123.656 2613998)"><stop offset=".18" style="stop-color:#0052cc"/><stop offset="1" style="stop-color:#2684ff"/></linearGradient><path d="M1688.7 715.2H728.2c.1 239.3 194.1 433.2 433.3 433.3h176.9v171.4c.3 239.3 194.3 433 433.6 433V798.5c.1-46-37.2-83.3-83.3-83.3z" style="fill:url(#a)"/><linearGradient id="b" gradientUnits="userSpaceOnUse" x1="250.787" y1="2250.31" x2="250.383" y2="2249.914" gradientTransform="matrix(1168.1676 0 0 -1161.3223 -291658 2614533)"><stop offset=".18" style="stop-color:#0052cc"/><stop offset="1" style="stop-color:#2684ff"/></linearGradient><path d="M1213.2 1193.5H252.7c0 239.5 194.1 433.6 433.6 433.6h177.5v170.8c.2 239 193.7 432.9 432.8 433.3v-954.4c-.1-46-37.4-83.3-83.4-83.3z" style="fill:url(#b)"/></svg>