<?xml version="1.0" standalone="no"?>
<!DOCTYPE svg PUBLIC "-//W3C//DTD SVG 20010904//EN"
 "http://www.w3.org/TR/2001/REC-SVG-20010904/DTD/svg10.dtd">
<svg version="1.0" xmlns="http://www.w3.org/2000/svg"
 width="250.000000pt" height="253.000000pt" viewBox="0 0 250.000000 253.000000"
 preserveAspectRatio="xMidYMid meet">

<g transform="translate(0.000000,253.000000) scale(0.100000,-0.100000)"
fill="#000000" stroke="none">
<path d="M0 1265 l0 -1265 1250 0 1250 0 0 1265 0 1265 -1250 0 -1250 0 0
-1265z m1568 459 c7 -46 -91 -89 -276 -121 l-93 -17 -48 -55 c-71 -83 -142
-184 -283 -401 -70 -107 -150 -220 -177 -252 -52 -57 -130 -105 -156 -94 -21
8 -19 55 5 94 22 36 50 43 50 12 0 -64 92 36 215 234 107 172 188 287 273 384
30 35 53 65 51 66 -2 2 -42 0 -89 -5 -47 -5 -193 -8 -325 -7 -132 1 -245 -1
-251 -5 -16 -9 -78 34 -82 57 -4 21 9 21 233 -4 108 -12 389 -12 497 -1 50 5
82 14 94 25 24 24 119 78 173 98 30 11 71 16 116 15 63 -2 70 -4 73 -23z m492
-211 c0 -9 -6 -24 -14 -32 -42 -49 -357 -523 -352 -529 3 -2 15 6 28 18 13 13
49 42 82 66 102 77 139 48 71 -54 -44 -64 -58 -99 -44 -108 12 -7 57 22 180
112 48 35 89 64 93 64 20 0 -4 -24 -86 -85 -145 -109 -188 -135 -219 -135 -53
0 -49 39 18 150 18 30 30 56 28 58 -8 8 -109 -74 -217 -177 -56 -52 -67 -30
-23 43 19 32 35 60 35 62 0 2 -27 -16 -60 -40 -108 -80 -201 -112 -250 -86
-20 11 -22 18 -18 61 4 33 2 46 -6 42 -6 -4 -36 -23 -66 -44 -89 -60 -148 -85
-168 -72 -10 6 -16 22 -15 37 2 29 -8 33 -27 12 -16 -21 -96 -50 -110 -41 -22
14 -4 83 32 124 52 60 138 120 195 137 62 18 92 16 107 -8 13 -21 -16 -64 -57
-88 -35 -19 -46 -6 -19 23 54 57 -4 79 -74 29 -49 -35 -120 -115 -127 -142
-12 -46 31 -32 100 31 41 37 62 46 76 33 4 -4 -5 -20 -18 -36 -25 -30 -34 -78
-15 -78 34 0 175 97 268 183 93 86 162 108 162 51 0 -31 -59 -95 -132 -145
-32 -22 -58 -44 -58 -49 0 -5 9 -16 21 -24 38 -26 97 0 252 114 38 28 83 87
212 282 90 135 172 251 182 256 21 12 33 7 33 -15z"/>
<path d="M1394 1716 c-49 -16 -143 -78 -126 -84 38 -12 220 55 230 86 5 16
-49 15 -104 -2z"/>
<path d="M1436 1050 c-76 -70 -77 -118 -1 -56 52 43 72 73 57 88 -7 7 -25 -4
-56 -32z"/>
</g>
</svg>
